<svg xmlns="http://www.w3.org/2000/svg" width="32" height="23" viewBox="0 0 32 23">
  <path
    d="M8.3,23h0a11.508,11.508,0,0,1-3.824-.68A9.741,9.741,0,0,1,1.9,20.909a8.861,8.861,0,0,1-1.449-1.4A5.284,5.284,0,0,1,0,18.881a33.4,33.4,0,0,1,.615-6.273,38.421,38.421,0,0,1,1.353-5.1c.508-1.5,1.016-2.688,1.353-3.425.366-.8.613-1.248.615-1.252a16.615,16.615,0,0,1,2.9-1.637A15.491,15.491,0,0,1,9.294.354,12.931,12.931,0,0,1,11,.044C11.4,0,11.634,0,11.637,0l.257.343A20.3,20.3,0,0,0,6.481,2.661a9.815,9.815,0,0,0-1.69,1.287A13.065,13.065,0,0,1,7.175,2.691a19.053,19.053,0,0,1,2.788-.884,25.048,25.048,0,0,1,3.046-.522,28.908,28.908,0,0,1,3.157-.171,26.712,26.712,0,0,1,6.317.726,17.072,17.072,0,0,1,2.678.888,10.172,10.172,0,0,1,2.133,1.22.009.009,0,0,0,0-.009,8.754,8.754,0,0,0-2.036-1.425A22.563,22.563,0,0,0,19.936.343L20.364,0c.025,0,.252,0,.638.044a12.93,12.93,0,0,1,1.7.31,15.491,15.491,0,0,1,2.459.841,16.614,16.614,0,0,1,2.9,1.637c.01.019.256.467.615,1.252.337.737.845,1.929,1.353,3.425a38.421,38.421,0,0,1,1.353,5.1A33.4,33.4,0,0,1,32,18.881a5.288,5.288,0,0,1-.455.632,8.862,8.862,0,0,1-1.449,1.4,9.741,9.741,0,0,1-2.572,1.412A11.508,11.508,0,0,1,23.7,23l-1.8-2.146a8.961,8.961,0,0,0,3.754-2.028,6.27,6.27,0,0,0,1.123-1.32,8.847,8.847,0,0,1-2.023,1.4,14.3,14.3,0,0,1-2.577,1.007,22.2,22.2,0,0,1-6.082.813h0a21.9,21.9,0,0,1-5.99-.8,14.261,14.261,0,0,1-2.572-1,9.234,9.234,0,0,1-2.06-1.417,5.6,5.6,0,0,0,1.048,1.255,9.64,9.64,0,0,0,3.743,2.092L8.3,23ZM20.792,10.3a2.921,2.921,0,0,0-2.824,3,2.829,2.829,0,1,0,5.647,0A2.921,2.921,0,0,0,20.792,10.3Zm-9.925,0a2.921,2.921,0,0,0-2.824,3,2.921,2.921,0,0,0,2.824,3,2.921,2.921,0,0,0,2.824-3A2.921,2.921,0,0,0,10.866,10.3Z" />
</svg>