<svg xmlns="http://www.w3.org/2000/svg" width="23.002" height="23" viewBox="0 0 23.002 23">

  <path
    d="M-777.651-13319.5a6.861,6.861,0,0,1-6.853-6.85v-9.3a6.863,6.863,0,0,1,6.853-6.853h9.365a6.759,6.759,0,0,1,6.783,6.853v9.3a6.86,6.86,0,0,1-6.85,6.85Zm-4.545-16.147v9.368a4.534,4.534,0,0,0,4.545,4.542h9.365a4.534,4.534,0,0,0,4.545-4.542h-.07v-9.368a4.533,4.533,0,0,0-4.542-4.545h-9.3A4.534,4.534,0,0,0-782.2-13335.651Z"
    transform="translate(784.504 13342.504)" />
  <path
    d="M18.943,22.578a3.635,3.635,0,1,1,3.635-3.635A3.611,3.611,0,0,1,18.943,22.578Zm0-9.578a5.942,5.942,0,1,0,5.942,5.943A5.938,5.938,0,0,0,18.943,13Z"
    transform="translate(-7.407 -7.407)" />
  <ellipse cx="1.398" cy="1.398" rx="1.398" ry="1.398" transform="translate(16.08 4.195)" />

</svg>