<svg xmlns="http://www.w3.org/2000/svg" width="23.367" height="23.001" viewBox="0 0 23.367 23.001">
  <path
    d="M36.1,30.616c-.1-.337-.589-.575-.589-.575l-.121-.063a9.4,9.4,0,0,1-2.139-1.4,7.251,7.251,0,0,1-1.239-1.411,5.327,5.327,0,0,1-.684-1.409.479.479,0,0,1,0-.349.579.579,0,0,1,.17-.192c.274-.194.715-.48.987-.655.235-.153.437-.284.555-.366a2.426,2.426,0,0,0,.8-.832,1.434,1.434,0,0,0,.068-1.205,1.4,1.4,0,0,0-1.382-.883,2.185,2.185,0,0,0-.446.048,6.961,6.961,0,0,0-1.031.332A.031.031,0,0,1,31,21.623a21.108,21.108,0,0,0-.015-2.677,6.6,6.6,0,0,0-.536-2.2,6.05,6.05,0,0,0-2.471-2.651,7.374,7.374,0,0,0-7.06,0,6.039,6.039,0,0,0-2.474,2.651,6.524,6.524,0,0,0-.536,2.2,20.662,20.662,0,0,0-.015,2.677.033.033,0,0,1-.046.032,6.961,6.961,0,0,0-1.031-.332,2.149,2.149,0,0,0-.446-.048,1.4,1.4,0,0,0-1.382.883,1.434,1.434,0,0,0,.068,1.205,2.449,2.449,0,0,0,.8.832c.116.083.32.213.555.366.264.172.694.451.97.643a.575.575,0,0,1,.187.2.5.5,0,0,1,0,.364,5.344,5.344,0,0,1-.679,1.395,7.182,7.182,0,0,1-1.239,1.412,9.407,9.407,0,0,1-2.139,1.4c-.039.019-.085.041-.133.07,0,0-.485.247-.577.568a1.116,1.116,0,0,0,.592,1.154,6.349,6.349,0,0,0,1.758.711c.119.032.226.061.323.09a.647.647,0,0,1,.279.162.872.872,0,0,1,.121.386,1.139,1.139,0,0,0,.458.771,2.447,2.447,0,0,0,1.315.272,7.132,7.132,0,0,1,2.091.318,5.362,5.362,0,0,1,1.111.577,6.282,6.282,0,0,0,7.218,0,5.422,5.422,0,0,1,1.1-.57,7.132,7.132,0,0,1,2.091-.318,2.424,2.424,0,0,0,1.314-.272,1.179,1.179,0,0,0,.468-.822.731.731,0,0,1,.112-.332.638.638,0,0,1,.269-.158c.1-.032.211-.061.335-.095a6.237,6.237,0,0,0,1.606-.614c.781-.444.834-.987.752-1.256Z"
    transform="translate(-12.767 -13.193)" />
</svg>