<svg id="twitter" xmlns="http://www.w3.org/2000/svg" width="28.309" height="23.001" viewBox="0 0 28.309 23.001">
  <path
    d="M33.309,7.742a10.471,10.471,0,0,1-3.362.885,5.717,5.717,0,0,0,2.566-3.185A11.152,11.152,0,0,1,28.8,6.858,5.7,5.7,0,0,0,24.639,5,5.833,5.833,0,0,0,18.8,10.839a6.829,6.829,0,0,0,.177,1.327,16.329,16.329,0,0,1-11.943-6.1,5.568,5.568,0,0,0-.8,2.919A5.985,5.985,0,0,0,8.8,13.847a5.4,5.4,0,0,1-2.654-.708v.088a5.788,5.788,0,0,0,4.689,5.662,8.716,8.716,0,0,1-1.5.177,4.307,4.307,0,0,1-1.062-.088,5.909,5.909,0,0,0,5.4,4.069,11.427,11.427,0,0,1-7.254,2.477A7.61,7.61,0,0,1,5,25.435,16.242,16.242,0,0,0,13.935,28c10.7,0,16.543-8.847,16.543-16.543v-.8a11.146,11.146,0,0,0,2.831-2.919"
    transform="translate(-5 -5)" />
</svg>