<svg xmlns="http://www.w3.org/2000/svg" width="29.125" height="20.484" viewBox="0 0 29.125 20.484">
  <g id="youtube" transform="translate(-954 -49)">
    <path id="Path_210" data-name="Path 210"
      d="M-3.982,3.128A6.3,6.3,0,0,0-5.139.237,4.161,4.161,0,0,0-8.057-1c-4.076-.295-10.189-.295-10.189-.295h-.013s-6.113,0-10.189.295A4.162,4.162,0,0,0-31.367.237a6.3,6.3,0,0,0-1.157,2.891,44.059,44.059,0,0,0-.291,4.714v2.21a44.036,44.036,0,0,0,.291,4.714,6.3,6.3,0,0,0,1.157,2.891A4.936,4.936,0,0,0-28.155,18.9c2.33.224,9.9.293,9.9.293s6.12-.009,10.2-.3a4.167,4.167,0,0,0,2.918-1.234,6.3,6.3,0,0,0,1.158-2.891,44.036,44.036,0,0,0,.291-4.714V7.841A44.059,44.059,0,0,0-3.982,3.128Zm-17.278,9.6V4.546l7.869,4.106Z"
      transform="translate(986.815 50.291)" />
  </g>
</svg>