<svg xmlns="http://www.w3.org/2000/svg" xmlns:xlink="http://www.w3.org/1999/xlink" width="63" height="81" viewBox="0 0 63 81">
  <defs>
    <clipPath id="clip-path">
      <rect id="Rectangle_40" data-name="Rectangle 40" width="63" height="81" transform="translate(-0.072 0.24)" fill="#fff"/>
    </clipPath>
  </defs>
  <g id="Group_2469" data-name="Group 2469" transform="translate(0.072 -0.24)" clip-path="url(#clip-path)">
    <g id="Group_2468" data-name="Group 2468" transform="translate(0 0)">
      <path id="Path_387" data-name="Path 387" d="M827.8,285.558c-.367-1.092-.734-2.175-1.1-3.267-.89-2.633-1.771-5.267-2.661-7.891q-1.6-4.762-3.2-9.516c-.927-2.753-1.854-5.515-2.789-8.268-.45-1.331-.872-2.679-1.349-4.01,0-.009,0-.009-.009-.018a1.145,1.145,0,0,0-.826-.817h-.009c-.028-.009-.055-.009-.083-.018h-.018c-.028,0-.055-.009-.073-.009h-.156a.069.069,0,0,0-.046.009c-.018,0-.037.009-.064.009s-.027.009-.046.009-.027.009-.046.009-.018.009-.028.009-.018.009-.027.009c-.027.009-.046.018-.073.027-.009.009-.027.009-.037.018l-.055.027c-.018.009-.028.018-.046.027s-.027.018-.037.028-.037.027-.055.037-.028.018-.037.027-.027.018-.037.028-.037.027-.055.046a1.126,1.126,0,0,0-.33.863c-.119,2.835-.23,5.671-.349,8.506q-.275,6.841-.551,13.682c-.037.817-.064,1.643-.1,2.459q-3.579,2.037-7.148,4.083-6.111,3.482-12.223,6.974c-.936.532-1.872,1.064-2.8,1.6a1.1,1.1,0,0,0-.45,1.376,1.119,1.119,0,0,0,1.3.633c1.156-.174,2.3-.349,3.459-.532,2.771-.422,5.533-.844,8.3-1.276l10.094-1.542c2.9-.44,5.79-.89,8.69-1.331,1.395-.211,2.845-.339,4.23-.651.018,0,.037-.009.064-.009A1.084,1.084,0,0,0,827.8,285.558ZM818.323,264.3q1.6,4.762,3.2,9.516,1.39,4.129,2.789,8.268c.138.4.266.8.4,1.2l-8.176-5.093c-.275-.174-.551-.34-.826-.514.018-.367.027-.743.046-1.11q.261-6.51.532-13.03c.064-1.542.138-3.092.211-4.643C817.1,260.691,817.708,262.5,818.323,264.3Zm-3.634,22.3L804.6,288.136l-7.011,1.074c.826-.468,1.643-.936,2.468-1.4q6.056-3.469,12.122-6.928c.789-.45,1.588-.881,2.367-1.34q4.556,2.836,9.112,5.68c-.22.037-.44.064-.67.1Q818.842,285.953,814.69,286.595Z" transform="translate(-765.024 -218.416)" fill="#fff"/>
      <path id="Path_388" data-name="Path 388" d="M646.514,222.736l-6.965-.248q-5.588-.193-11.167-.395c-.853-.027-1.707-.064-2.56-.092a1.114,1.114,0,0,0-.954,1.661q3,5.657,6.01,11.323c.284.541.569,1.074.853,1.615a1.1,1.1,0,0,0,1.9-1.11q-2.546-4.8-5.1-9.617,3.565,2.23,7.13,4.45c.459.284.908.569,1.367.853,1.2.752,2.312-1.147,1.11-1.9q-3.923-2.45-7.855-4.909c.835.027,1.67.064,2.505.092q5.588.193,11.167.395c.853.028,1.707.064,2.56.092C647.936,224.993,647.927,222.791,646.514,222.736Z" transform="translate(-624.735 -193.289)" fill="#fff"/>
      <path id="Path_389" data-name="Path 389" d="M773.96,231.452c-1.587-.073-3.175-.156-4.762-.229a1.1,1.1,0,0,0,0,2.2c1.2.055,2.413.119,3.615.174-.1,2.523-.211,5.047-.312,7.58q-.289,6.841-.569,13.682c-.018.422-.037.844-.055,1.257-.844-.523-1.688-1.055-2.533-1.578-1.2-.752-2.312,1.156-1.11,1.9l2.478,1.542-6.029,3.441q-6.111,3.5-12.223,6.983c-.275.156-.551.312-.826.477.266-2.184.541-4.368.807-6.561.055-.413.1-.817.156-1.23a1.11,1.11,0,0,0-1.1-1.1,1.129,1.129,0,0,0-1.1,1.1c-.257,2.083-.514,4.157-.771,6.24-.22-.44-.45-.89-.67-1.331a1.1,1.1,0,0,0-1.9,1.11c.734,1.468,1.477,2.936,2.211,4.4a1.056,1.056,0,0,0,1,.532h.009a1.048,1.048,0,0,0,.7-.257q3.7-2.106,7.4-4.221l12.2-6.965c.945-.541,1.927-1.046,2.845-1.624a1.42,1.42,0,0,0,.624-1.23c.018-.477.037-.945.055-1.422q.275-6.552.551-13.113c.147-3.5.358-7,.44-10.5,0-.055.009-.11.009-.174A1.166,1.166,0,0,0,773.96,231.452Z" transform="translate(-727.956 -201.078)" fill="#fff"/>
      <path id="Path_390" data-name="Path 390" d="M796.737,209.522a5.964,5.964,0,0,1,11.929,0V228.15a5.964,5.964,0,1,1-11.929,0Zm5.965-3.854a3.854,3.854,0,0,1,3.854,3.854V228.15a3.854,3.854,0,1,1-7.708,0V209.522a3.849,3.849,0,0,1,3.854-3.854Z" transform="translate(-770.042 -177.708)" fill="#fff" fill-rule="evenodd"/>
      <path id="Path_391" data-name="Path 391" d="M870.523,96.965a5.777,5.777,0,0,1,7.039-4,5.863,5.863,0,0,1,4.3,6.565c-.121.991-.452,4.368-.755,7.519-.151,1.571-.294,3.079-.4,4.194-.053.557-.1,1.017-.126,1.337l-.047.5a1.1,1.1,0,1,1-2.193-.206l.047-.5.126-1.338c.106-1.116.249-2.625.4-4.2.3-3.134.635-6.548.761-7.575A3.662,3.662,0,0,0,877,95.091a3.578,3.578,0,0,0-4.338,2.412l-2.751,11.552a1.1,1.1,0,1,1-2.142-.51l2.755-11.571Z" transform="translate(-830.021 -84.105)" fill="#fff"/>
      <path id="Path_392" data-name="Path 392" d="M647.279,78.285a2.754,2.754,0,0,1,1.935.569c.745.567,1.49,1.8,1.869,4.5.353,2.52.859,4.956,1.157,7.025h0c.322,2.235.737,4.508.872,5.532a1.1,1.1,0,0,0,2.183-.289c-.136-1.031-.555-3.326-.879-5.579h0c-.3-2.071-.8-4.5-1.152-6.994-.432-3.084-1.373-4.924-2.715-5.946a4.956,4.956,0,0,0-3.5-1.008,5.439,5.439,0,0,0-4.215,2.6,8.474,8.474,0,0,0-.955,4.711v0l1.336,12.219a1.1,1.1,0,0,0,2.2-.043l-1.336-12.229v0a6.422,6.422,0,0,1,.627-3.5A3.242,3.242,0,0,1,647.279,78.285Z" transform="translate(-639.212 -70.006)" fill="#fff"/>
      <path id="Path_393" data-name="Path 393" d="M658.024,281.961a2.477,2.477,0,0,1,1.584-.52,4.149,4.149,0,0,1,2.319.56,3.512,3.512,0,0,1,1.455,2.39,4.861,4.861,0,0,1-.141,1.921,9.428,9.428,0,0,1-2.118,3.472c-.228.261-.434.5-.638.743a55.192,55.192,0,0,1-5.92,5.947,1.193,1.193,0,0,0-.248,1.447l3.133,5.8a1.1,1.1,0,0,0,1.939-1.044l-2.759-5.113a53.685,53.685,0,0,0,5.518-5.6h0c.2-.241.411-.483.636-.741a11.554,11.554,0,0,0,2.574-4.309,6.986,6.986,0,0,0,.221-2.689l-.006-.074,0-.027a5.708,5.708,0,0,0-2.488-4,6.349,6.349,0,0,0-3.578-.884,4.579,4.579,0,0,0-3.074,1.2,11.881,11.881,0,0,0-1.027,1.378c-.208.309-.376.568-.524.8-.13.2-.244.375-.354.537l0,0,0,0a32.174,32.174,0,0,1-8.783,8.916,3.913,3.913,0,0,0-1.778,2.531c-1.685,8.949,2.368,14.337,5.281,16.462,0,.177.006.417.008.742.006.978.017,2.508.181,4.677a6.878,6.878,0,0,0,2.866,5.142,8.051,8.051,0,0,0,4.566,1.56h.023c1.006-.021,2.311-.053,3.788-.088h0c4.885-.117,11.653-.279,15.693-.279a8.782,8.782,0,0,0,6.031-1.888,8.457,8.457,0,0,0,2.177-3.294l.012-.029a1.1,1.1,0,0,0-2.03-.854,6.389,6.389,0,0,1-1.609,2.521,6.626,6.626,0,0,1-4.581,1.344c-4.07,0-10.887.163-15.773.28h0c-1.46.035-2.748.066-3.738.087a5.863,5.863,0,0,1-3.252-1.133,4.68,4.68,0,0,1-1.972-3.533c-.158-2.094-.169-3.566-.175-4.525v-.085c0-.425,0-.8-.025-1.059a2.136,2.136,0,0,0-.1-.531,1.273,1.273,0,0,0-.633-.721c-2.282-1.576-6.116-6.173-4.569-14.388a1.721,1.721,0,0,1,.806-1.087,34.356,34.356,0,0,0,9.424-9.546c.085-.126.222-.335.374-.566.169-.258.356-.543.507-.769A10.667,10.667,0,0,1,658.024,281.961Z" transform="translate(-640.64 -241.641)" fill="#fff"/>
      <path id="Path_394" data-name="Path 394" d="M734.667,39.187a3.149,3.149,0,0,1,2.058.524,4.559,4.559,0,0,1,1.733,3.1c.591,3.065,1.586,10.643,2.226,15.518.09.687.173,1.32.247,1.879a1.086,1.086,0,0,0,2.154-.285c-.073-.552-.156-1.181-.245-1.865C742.2,53.2,741.2,45.539,740.592,42.4a6.7,6.7,0,0,0-2.642-4.484,5.422,5.422,0,0,0-7.89,2.14,8.407,8.407,0,0,0-.855,4v.025l1.709,18.572a1.086,1.086,0,0,0,2.164-.2l-1.7-18.52a6.247,6.247,0,0,1,.62-2.885A3.2,3.2,0,0,1,734.667,39.187Z" transform="translate(-712.986 -37)" fill="#fff"/>
    </g>
  </g>
</svg>
